<svg id="visual" viewBox="0 0 960 540" width="960" height="540" xmlns="http://www.w3.org/2000/svg" xmlns:xlink="http://www.w3.org/1999/xlink" version="1.1"><rect x="0" y="0" width="960" height="540" fill="#001220"></rect><path d="M0 268L22.8 258C45.7 248 91.3 228 137 226.7C182.7 225.3 228.3 242.7 274 245C319.7 247.3 365.3 234.7 411.2 229.3C457 224 503 226 548.8 220.7C594.7 215.3 640.3 202.7 686 198.3C731.7 194 777.3 198 823 202.3C868.7 206.7 914.3 211.3 937.2 213.7L960 216L960 0L937.2 0C914.3 0 868.7 0 823 0C777.3 0 731.7 0 686 0C640.3 0 594.7 0 548.8 0C503 0 457 0 411.2 0C365.3 0 319.7 0 274 0C228.3 0 182.7 0 137 0C91.3 0 45.7 0 22.8 0L0 0Z" fill="#fa7268"></path><path d="M0 217L22.8 206C45.7 195 91.3 173 137 162C182.7 151 228.3 151 274 161C319.7 171 365.3 191 411.2 195C457 199 503 187 548.8 186.8C594.7 186.7 640.3 198.3 686 195.8C731.7 193.3 777.3 176.7 823 166.3C868.7 156 914.3 152 937.2 150L960 148L960 0L937.2 0C914.3 0 868.7 0 823 0C777.3 0 731.7 0 686 0C640.3 0 594.7 0 548.8 0C503 0 457 0 411.2 0C365.3 0 319.7 0 274 0C228.3 0 182.7 0 137 0C91.3 0 45.7 0 22.8 0L0 0Z" fill="#ef5f67"></path><path d="M0 157L22.8 157.7C45.7 158.3 91.3 159.7 137 158.7C182.7 157.7 228.3 154.3 274 151.3C319.7 148.3 365.3 145.7 411.2 137.8C457 130 503 117 548.8 120.3C594.7 123.7 640.3 143.3 686 150.2C731.7 157 777.3 151 823 147.7C868.7 144.3 914.3 143.7 937.2 143.3L960 143L960 0L937.2 0C914.3 0 868.7 0 823 0C777.3 0 731.7 0 686 0C640.3 0 594.7 0 548.8 0C503 0 457 0 411.2 0C365.3 0 319.7 0 274 0C228.3 0 182.7 0 137 0C91.3 0 45.7 0 22.8 0L0 0Z" fill="#e34c67"></path><path d="M0 101L22.8 97.7C45.7 94.3 91.3 87.7 137 92.2C182.7 96.7 228.3 112.3 274 115.5C319.7 118.7 365.3 109.3 411.2 103.8C457 98.3 503 96.7 548.8 98.3C594.7 100 640.3 105 686 108.2C731.7 111.3 777.3 112.7 823 114.7C868.7 116.7 914.3 119.3 937.2 120.7L960 122L960 0L937.2 0C914.3 0 868.7 0 823 0C777.3 0 731.7 0 686 0C640.3 0 594.7 0 548.8 0C503 0 457 0 411.2 0C365.3 0 319.7 0 274 0C228.3 0 182.7 0 137 0C91.3 0 45.7 0 22.8 0L0 0Z" fill="#d53867"></path><path d="M0 32L22.8 33.5C45.7 35 91.3 38 137 45.5C182.7 53 228.3 65 274 66.3C319.7 67.7 365.3 58.3 411.2 53.3C457 48.3 503 47.7 548.8 44.8C594.7 42 640.3 37 686 36C731.7 35 777.3 38 823 45.8C868.7 53.7 914.3 66.3 937.2 72.7L960 79L960 0L937.2 0C914.3 0 868.7 0 823 0C777.3 0 731.7 0 686 0C640.3 0 594.7 0 548.8 0C503 0 457 0 411.2 0C365.3 0 319.7 0 274 0C228.3 0 182.7 0 137 0C91.3 0 45.7 0 22.8 0L0 0Z" fill="#c62368"></path></svg>